#!OML:ASF H:\ManfredETheater\Project 1\Capture day 1\Session 1\subject.ASF
:FULLY-SPECIFIED
:DEGREES
289
root 1.85592 18.0238 -27.4968 -176.403 -1.33746 -178.379
lowerback 4.36012 -0.338301 0.369275
upperback -4.43047 -0.456771 2.15196
thorax -7.05816 -0.25273 2.10139
lowerneck -20.5428 -3.18745 -3.16161
upperneck 20.6919 -3.55827 1.47622
head 10.0743 -1.61772 0.542126
rclavicle 3.00662e-015 -2.62396e-014
rhumerus -37.6861 -11.6478 -78.5335
rradius 31.0672
rwrist 6.80534
rhand -19.4014 -10.2946
rfingers 7.12502
rthumb 6.91768 -40.1616
lclavicle 3.00662e-015 -2.62396e-014
lhumerus -36.7753 13.2428 80.9811
lradius 33.9235
lwrist -9.72826
lhand -11.7243 7.74834
lfingers 7.12502
lthumb 14.3226 37.2343
rfemur -10.6871 -0.494586 22.2601
rtibia 28.3494
rfoot -14.7047 -11.3154
rtoes -24.3359
lfemur -17.323 -6.02477 -17.3663
ltibia 38.1311
lfoot -21.2176 -1.04534
ltoes 11.3474
290
root 1.85946 18.0221 -27.5179 -176.331 -1.33336 -178.36
lowerback 4.32091 -0.378472 0.409785
upperback -4.41615 -0.50808 2.16986
thorax -7.01861 -0.280128 2.10181
lowerneck -20.5531 -3.1466 -3.10745
upperneck 20.6758 -3.50749 1.42826
head 10.067 -1.59645 0.523619
rclavicle -9.44227e-016 -1.19271e-014
rhumerus -37.5828 -11.6501 -78.5263
rradius 31.3766
rwrist 6.4565
rhand -19.5672 -10.3551
rfingers 7.12502
rthumb 6.75762 -40.2272
lclavicle -9.44227e-016 -1.19271e-014
lhumerus -36.7955 12.8344 81.2601
lradius 33.7565
lwrist -10.0339
lhand -11.209 7.53477
lfingers 7.12502
lthumb 14.8191 36.9849
rfemur -10.6821 -0.521843 22.2922
rtibia 28.3398
rfoot -14.769 -11.291
rtoes -24.3553
lfemur -17.3305 -5.97425 -17.3414
ltibia 38.156
lfoot -21.2873 -1.00642
ltoes 11.186
291
root 1.86255 18.0204 -27.5396 -176.26 -1.33313 -178.353
lowerback 4.28003 -0.415357 0.439695
upperback -4.39836 -0.555678 2.18445
thorax -6.97448 -0.305095 2.10413
lowerneck -20.5619 -3.11031 -3.05845
upperneck 20.6577 -3.46164 1.3808
head 10.0591 -1.57783 0.505426
rclavicle -4.14963e-015 7.95139e-015
rhumerus -37.5048 -11.6573 -78.5158
rradius 31.7197
rwrist 6.06109
rhand -19.7295 -10.4498
rfingers 7.12502
rthumb 6.60094 -40.3269
lclavicle -4.14963e-015 7.95139e-015
lhumerus -36.8124 12.4332 81.5417
lradius 33.5992
lwrist -10.3892
lhand -10.6455 7.30689
lfingers 7.12502
lthumb 15.3619 36.7162
rfemur -10.6766 -0.557146 22.3086
rtibia 28.334
rfoot -14.8415 -11.264
rtoes -24.3947
lfemur -17.3316 -5.91786 -17.3305
ltibia 38.1735
lfoot -21.3588 -0.973077
ltoes 11.0053
292
root 1.86545 18.0187 -27.5617 -176.19 -1.33323 -178.35
lowerback 4.24445 -0.447119 0.462045
upperback -4.38056 -0.596802 2.19768
thorax -6.93362 -0.326423 2.10863
lowerneck -20.5631 -3.07932 -3.01439
upperneck 20.6396 -3.42205 1.33527
head 10.0501 -1.56219 0.487914
rclavicle -8.77137e-015 1.98785e-015
rhumerus -37.4502 -11.6705 -78.5003
rradius 32.0806
rwrist 5.63091
rhand -19.8871 -10.5716
rfingers 7.12502
rthumb 6.44885 -40.4534
lclavicle -8.77137e-015 1.98785e-015
lhumerus -36.8329 12.0453 81.8214
lradius 33.4567
lwrist -10.7787
lhand -10.0433 7.07799
lfingers 7.12502
lthumb 15.9419 36.4419
rfemur -10.6678 -0.58304 22.3194
rtibia 28.3311
rfoot -14.9198 -11.2473
rtoes -24.4393
lfemur -17.3246 -5.85554 -17.3246
ltibia 38.1834
lfoot -21.4309 -0.946769
ltoes 10.8202
293
root 1.86805 18.017 -27.5843 -176.123 -1.33244 -178.358
lowerback 4.21606 -0.4733 0.471708
upperback -4.36411 -0.631192 2.20778
thorax -6.89852 -0.343736 2.11639
lowerneck -20.5561 -3.05429 -2.97328
upperneck 20.6229 -3.38988 1.2904
head 10.0403 -1.54998 0.470155
rclavicle -2.45996e-015 2.38542e-015
rhumerus -37.4138 -11.6902 -78.4781
rradius 32.4444
rwrist 5.18117
rhand -20.0429 -10.7043
rfingers 7.12502
rthumb 6.2984 -40.5907
lclavicle -2.45996e-015 2.38542e-015
lhumerus -36.8551 11.6783 82.0965
lradius 33.3293
lwrist -11.2054
lhand -9.39408 6.87577
lfingers 7.12502
lthumb 16.5671 36.1886
rfemur -10.6544 -0.600044 22.3182
rtibia 28.3296
rfoot -15.0032 -11.2405
rtoes -24.489
lfemur -17.3086 -5.79107 -17.3303
ltibia 38.1861
lfoot -21.5046 -0.926655
ltoes 10.6308
294
root 1.87038 18.0152 -27.6073 -176.058 -1.33126 -178.37
lowerback 4.1945 -0.494012 0.474135
upperback -4.34937 -0.658632 2.2157
thorax -6.86938 -0.357227 2.12534
lowerneck -20.5435 -3.03483 -2.93971
upperneck 20.6111 -3.3646 1.25281
head 10.0318 -1.54048 0.45527
rclavicle -6.23687e-015 2.34566e-014
rhumerus -37.3954 -11.7063 -78.4547
rradius 32.8113
rwrist 4.71887
rhand -20.1981 -10.8514
rfingers 7.12502
rthumb 6.14859 -40.7421
lclavicle -6.23687e-015 2.34566e-014
lhumerus -36.8771 11.3356 82.364
lradius 33.2152
lwrist -11.6572
lhand -8.70294 6.70945
lfingers 7.12502
lthumb 17.2324 35.9654
rfemur -10.6352 -0.603999 22.3118
rtibia 28.3276
rfoot -15.0889 -11.2485
rtoes -24.5417
lfemur -17.2867 -5.73097 -17.3416
ltibia 38.184
lfoot -21.5784 -0.911157
ltoes 10.4567
295
root 1.87248 18.0135 -27.6307 -175.991 -1.32677 -178.389
lowerback 4.17582 -0.508952 0.467822
upperback -4.33591 -0.678917 2.22106
thorax -6.84344 -0.366751 2.13588
lowerneck -20.5264 -3.02075 -2.91599
upperneck 20.6037 -3.34649 1.2275
head 10.0246 -1.53339 0.445353
rclavicle -1.68967e-015 6.75868e-015
rhumerus -37.3898 -11.7089 -78.4344
rradius 33.1716
rwrist 4.25197
rhand -20.3563 -10.982
rfingers 7.12502
rthumb 5.99584 -40.8772
lclavicle -1.68967e-015 6.75868e-015
lhumerus -36.8971 11.0198 82.6225
lradius 33.119
lwrist -12.1183
lhand -7.98459 6.58319
lfingers 7.12502
lthumb 17.9237 35.7773
rfemur -10.6152 -0.590052 22.3002
rtibia 28.3253
rfoot -15.1756 -11.2722
rtoes -24.5884
lfemur -17.2633 -5.67943 -17.3587
ltibia 38.1778
lfoot -21.6517 -0.896184
ltoes 10.3112
296
root 1.8742 18.0119 -27.6544 -175.921 -1.32006 -178.41
lowerback 4.16127 -0.519029 0.458875
upperback -4.32541 -0.692897 2.22423
thorax -6.82324 -0.37307 2.14509
lowerneck -20.5084 -3.01054 -2.89387
upperneck 20.6012 -3.3338 1.20541
head 10.0193 -1.52839 0.436053
rclavicle -7.20594e-016 1.59028e-015
rhumerus -37.3928 -11.6948 -78.4187
rradius 33.5152
rwrist 3.79677
rhand -20.5213 -11.076
rfingers 7.12502
rthumb 5.83655 -40.9756
lclavicle -7.20594e-016 1.59028e-015
lhumerus -36.9164 10.7166 82.8769
lradius 33.0431
lwrist -12.5601
lhand -7.2394 6.51589
lfingers 7.12502
lthumb 18.6406 35.6428
rfemur -10.596 -0.565189 22.2859
rtibia 28.3215
rfoot -15.2621 -11.3057
rtoes -24.6318
lfemur -17.2431 -5.64151 -17.3786
ltibia 38.1701
lfoot -21.7234 -0.879756
ltoes 10.2072
